REM DIRINDEX 1\2,1\3\5,1\3\6,1\4\7,1\4\8
REM DIRNAME folder01,folder02,folder03,folder04,folder05,folder06,folder07,folder08
TITLE ""
FILE "" MP3
  TRACK 01 AUDIO
    TITLE "0:"
    INDEX 01 00:00:00
  TRACK 02 AUDIO
    TITLE "7:cjc139_2587"
    INDEX 01 00:00:17
  TRACK 03 AUDIO
    TITLE "0:"
    INDEX 01 00:02:28
  TRACK 04 AUDIO
    TITLE "8:cjc139_2588"
    INDEX 01 00:05:14
  TRACK 05 AUDIO
    TITLE "0:"
    INDEX 01 00:07:27
  TRACK 06 AUDIO
    TITLE "7:cjc139_2589"
    INDEX 01 00:10:10
  TRACK 07 AUDIO
    TITLE "0:"
    INDEX 01 00:12:38
  TRACK 08 AUDIO
    TITLE "8:cjc139_2590"
    INDEX 01 00:15:23
  TRACK 09 AUDIO
    TITLE "0:"
    INDEX 01 00:17:41
  TRACK 10 AUDIO
    TITLE "7:cjc139_2591"
    INDEX 01 00:20:28
  TRACK 11 AUDIO
    TITLE "0:"
    INDEX 01 00:22:70
  TRACK 12 AUDIO
    TITLE "8:cjc139_2592"
    INDEX 01 00:25:56
  TRACK 13 AUDIO
    TITLE "0:"
    INDEX 01 00:28:19
  TRACK 14 AUDIO
    TITLE "7:cjc139_2593"
    INDEX 01 00:31:06
  TRACK 15 AUDIO
    TITLE "0:"
    INDEX 01 00:33:68
  TRACK 16 AUDIO
    TITLE "8:cjc139_2594"
    INDEX 01 00:36:52
  TRACK 17 AUDIO
    TITLE "0:"
    INDEX 01 00:39:07
  TRACK 18 AUDIO
    TITLE "7:cjc139_2595"
    INDEX 01 00:41:65
  TRACK 19 AUDIO
    TITLE "0:"
    INDEX 01 00:44:61
  TRACK 20 AUDIO
    TITLE "8:cjc139_2596"
    INDEX 01 00:47:46
  TRACK 21 AUDIO
    TITLE "0:"
    INDEX 01 00:50:01
  TRACK 22 AUDIO
    TITLE "7:cjc139_2597"
    INDEX 01 00:52:61
  TRACK 23 AUDIO
    TITLE "0:"
    INDEX 01 00:56:00
  TRACK 24 AUDIO
    TITLE "8:cjc139_2598"
    INDEX 01 00:58:60
  TRACK 25 AUDIO
    TITLE "0:"
    INDEX 01 01:01:27
  TRACK 26 AUDIO
    TITLE "7:cjc139_2599"
    INDEX 01 01:04:11
  TRACK 27 AUDIO
    TITLE "0:"
    INDEX 01 01:07:29
  TRACK 28 AUDIO
    TITLE "8:cjc139_2600"
    INDEX 01 01:10:12
  TRACK 29 AUDIO
    TITLE "0:"
    INDEX 01 01:12:44
  TRACK 30 AUDIO
    TITLE "7:cjc139_2601"
    INDEX 01 01:15:33
  TRACK 31 AUDIO
    TITLE "0:"
    INDEX 01 01:18:74
  TRACK 32 AUDIO
    TITLE "8:cjc139_2602"
    INDEX 01 01:21:57
  TRACK 33 AUDIO
    TITLE "0:"
    INDEX 01 01:24:41
  TRACK 34 AUDIO
    TITLE "7:cjc139_2603"
    INDEX 01 01:27:26
  TRACK 35 AUDIO
    TITLE "0:"
    INDEX 01 01:30:52
  TRACK 36 AUDIO
    TITLE "8:cjc139_2604"
    INDEX 01 01:33:38
  TRACK 37 AUDIO
    TITLE "0:"
    INDEX 01 01:36:35
  TRACK 38 AUDIO
    TITLE "7:cjc139_2605"
    INDEX 01 01:39:21
  TRACK 39 AUDIO
    TITLE "0:"
    INDEX 01 01:42:47
  TRACK 40 AUDIO
    TITLE "8:cjc139_2606"
    INDEX 01 01:45:32
  TRACK 41 AUDIO
    TITLE "0:"
    INDEX 01 01:48:28
  TRACK 42 AUDIO
    TITLE "7:cjc139_2607"
    INDEX 01 01:51:13
  TRACK 43 AUDIO
    TITLE "0:"
    INDEX 01 01:53:70
  TRACK 44 AUDIO
    TITLE "8:cjc139_2608"
    INDEX 01 01:56:55
  TRACK 45 AUDIO
    TITLE "0:"
    INDEX 01 01:59:50
  TRACK 46 AUDIO
    TITLE "7:cjc139_2609"
    INDEX 01 02:02:36
  TRACK 47 AUDIO
    TITLE "0:"
    INDEX 01 02:05:23
  TRACK 48 AUDIO
    TITLE "8:cjc139_2610"
    INDEX 01 02:08:07
  TRACK 49 AUDIO
    TITLE "0:"
    INDEX 01 02:11:57
  TRACK 50 AUDIO
    TITLE "7:cjc139_2611"
    INDEX 01 02:14:43
  TRACK 51 AUDIO
    TITLE "0:"
    INDEX 01 02:17:32
  TRACK 52 AUDIO
    TITLE "8:cjc139_2612"
    INDEX 01 02:20:20
  TRACK 53 AUDIO
    TITLE "0:"
    INDEX 01 02:23:01
  TRACK 54 AUDIO
    TITLE "7:cjc139_2613"
    INDEX 01 02:25:65
  TRACK 55 AUDIO
    TITLE "0:"
    INDEX 01 02:26:62
  TRACK 56 AUDIO
    TITLE "8:cjc139_2614"
    INDEX 01 02:29:45
  TRACK 57 AUDIO
    TITLE "0:"
    INDEX 01 02:30:52
  TRACK 58 AUDIO
    TITLE "7:cjc139_2615"
    INDEX 01 02:33:39
  TRACK 59 AUDIO
    TITLE "0:"
    INDEX 01 02:34:26
  TRACK 60 AUDIO
    TITLE "8:cjc139_2616"
    INDEX 01 02:37:11
  TRACK 61 AUDIO
    TITLE "0:"
    INDEX 01 02:38:16
  TRACK 62 AUDIO
    TITLE "7:cjc139_2617"
    INDEX 01 02:41:05
  TRACK 63 AUDIO
    TITLE "0:"
    INDEX 01 02:42:43
  TRACK 64 AUDIO
    TITLE "8:cjc139_2618"
    INDEX 01 02:45:32
  TRACK 65 AUDIO
    TITLE "0:"
    INDEX 01 02:47:00
  TRACK 66 AUDIO
    TITLE "7:cjc139_2619"
    INDEX 01 02:49:61
  TRACK 67 AUDIO
    TITLE "0:"
    INDEX 01 02:51:05
  TRACK 68 AUDIO
    TITLE "8:cjc139_2620"
    INDEX 01 02:53:65
  TRACK 69 AUDIO
    TITLE "0:"
    INDEX 01 02:54:64
  TRACK 70 AUDIO
    TITLE "7:cjc139_2621"
    INDEX 01 02:57:51
  TRACK 71 AUDIO
    TITLE "0:"
    INDEX 01 02:59:52
  TRACK 72 AUDIO
    TITLE "8:cjc139_2622"
    INDEX 01 03:02:38
  TRACK 73 AUDIO
    TITLE "0:"
    INDEX 01 03:03:73
  TRACK 74 AUDIO
    TITLE "7:cjc139_2623"
    INDEX 01 03:06:62
  TRACK 75 AUDIO
    TITLE "0:"
    INDEX 01 03:09:09
  TRACK 76 AUDIO
    TITLE "8:cjc139_2624"
    INDEX 01 03:11:71
  TRACK 77 AUDIO
    TITLE "0:"
    INDEX 01 03:14:10
  TRACK 78 AUDIO
    TITLE "7:cjc139_2625"
    INDEX 01 03:16:72
  TRACK 79 AUDIO
    TITLE "0:"
    INDEX 01 03:21:45
  TRACK 80 AUDIO
    TITLE "8:cjc139_2626"
    INDEX 01 03:24:32
  TRACK 81 AUDIO
    TITLE "0:"
    INDEX 01 03:28:30
  TRACK 82 AUDIO
    TITLE "7:cjc139_2627"
    INDEX 01 03:31:16
  TRACK 83 AUDIO
    TITLE "0:"
    INDEX 01 03:34:70
  TRACK 84 AUDIO
    TITLE "8:cjc139_2628"
    INDEX 01 03:37:54
  TRACK 85 AUDIO
    TITLE "0:"
    INDEX 01 03:41:68
  TRACK 86 AUDIO
    TITLE "7:cjc139_2629"
    INDEX 01 03:44:52
  TRACK 87 AUDIO
    TITLE "0:"
    INDEX 01 03:46:08
  TRACK 88 AUDIO
    TITLE "8:cjc139_2630"
    INDEX 01 03:48:68
  TRACK 89 AUDIO
    TITLE "0:"
    INDEX 01 03:50:31
  TRACK 90 AUDIO
    TITLE "7:cjc139_2631"
    INDEX 01 03:53:16
  TRACK 91 AUDIO
    TITLE "0:"
    INDEX 01 03:54:65
  TRACK 92 AUDIO
    TITLE "8:cjc139_2632"
    INDEX 01 03:57:51
  TRACK 93 AUDIO
    TITLE "0:"
    INDEX 01 03:59:21
  TRACK 94 AUDIO
    TITLE "7:cjc139_2633"
    INDEX 01 04:02:09
  TRACK 95 AUDIO
    TITLE "0:"
    INDEX 01 04:03:36
  TRACK 96 AUDIO
    TITLE "8:cjc139_2634"
    INDEX 01 04:06:23
  TRACK 97 AUDIO
    TITLE "0:"
    INDEX 01 04:07:44
